Coordinates
version=1
nRows=4
nColumns=107
inDegrees=yes

Units are S.I. units (second, meters, Newtons, ...)
If the header above contains a line with 'inDegrees', this indicates whether rotational values are in degrees (yes) or radians (no).

endheader
time	sternoclavicular_r2	sternoclavicular_r3	unrotscap_r3	unrotscap_r2	acromioclavicular_r2	acromioclavicular_r3	acromioclavicular_r1	unrothum_r1	unrothum_r3	unrothum_r2	elv_angle	shoulder_elv	shoulder1_r2	shoulder_rot	elbow_flexion	pro_sup	deviation	flexion	proximal_distal_r1	proximal_distal_r3	cmc_flexion	cmc_abduction	mp_flexion	ip_flexion	mcp2_flexion	mcp2_abduction	pm2_flexion	md2_flexion	mcp3_flexion	mcp3_abduction	pm3_flexion	md3_flexion	mcp4_flexion	mcp4_abduction	pm4_flexion	md4_flexion	mcp5_flexion	mcp5_abduction	pm5_flexion	md5_flexion	bicpt_tx	bicpt_ty	bicpt_tz	bicpt2_tx	bicpt2_ty	bicpt2_tz	ptpt_tx	ptpt_ty	ptpt_tz	FCUpt_tx	FCUpt_ty	FCUpt_tz	EDCpt_tx	EDCpt_ty	EDCpt_tz	APLpt_tx	APLpt_ty	APLpt_tz	FPLpt_tx	FPLpt_ty	FPLpt_tz	FPLpt2_tx	FPLpt2_ty	FPLpt2_tz	PEC1pt2_tx	PEC1pt2_ty	PEC1pt2_tz	PEC1pt3_tx	PEC1pt3_ty	PEC1pt3_tz	PEC2pt2_tx	PEC2pt2_ty	PEC2pt2_tz	PEC2pt3_tx	PEC2pt3_ty	PEC2pt3_tz	PEC3pt2_tx	PEC3pt2_ty	PEC3pt2_tz	PEC3pt3_tx	PEC3pt3_ty	PEC3pt3_tz	DELT2pt2a_tx	DELT2pt2a_ty	DELT2pt2a_tz	DELT2pt2_tx	DELT2pt2_ty	DELT2pt2_tz	LAT1pt2_tx	LAT1pt2_ty	LAT1pt2_tz	LAT1pt3_tx	LAT1pt3_ty	LAT1pt3_tz	LAT2pt2_tx	LAT2pt2_ty	LAT2pt2_tz	LAT2pt3_tx	LAT2pt3_ty	LAT2pt3_tz	LAT3pt2_tx	LAT3pt2_ty	LAT3pt2_tz	LAT3pt3_tx	LAT3pt3_ty	LAT3pt3_tz
      0.53333333	     -0.32326206	      0.13691855	     -0.13691855	      0.32326206	     -0.06545399	      0.52897613	      0.23777113	     -0.23777113	     -0.52897613	      0.06545399	     97.47611021	     76.53516564	     -1.70127907	    -19.93482112	     30.00433718	     28.76121848	      0.12527851	     -1.00441002	      0.15717440	     -0.50220501	     10.94811899	      1.03509170	    -41.58743959	    -59.98836147	     75.01465974	     12.97617273	     85.15853474	     82.16797813	     83.01144918	      3.59781888	     84.26176299	     50.81726267	     84.38282671	    -11.19959965	     88.80431184	     64.97682781	     93.98395543	    -14.06813684	     90.75454105	      5.54840225	      0.00089245	     -0.03103896	     -0.00485393	      0.01640893	     -0.01835083	     -0.00858124	      0.00542487	     -0.06627414	     -0.00236687	      0.00666822	     -0.18371093	     -0.00025908	     -0.00345134	      0.00094255	      0.00019288	      0.00018280	      0.00007312	      0.00036560	      0.00023398	      0.00070195	      0.00039484	      0.00003139	     -0.00020712	     -0.00024855	      0.00250865	      0.00880155	      0.00612282	     -0.00820628	      0.01981412	     -0.01879365	      0.00250865	      0.00880155	      0.00612282	      0.00055275	      0.01836846	     -0.00965194	      0.00396185	      0.00489443	      0.01600155	      0.00000000	      0.00783431	      0.00000000	     -0.00718581	     -0.03320779	     -0.00646006	      0.01373861	     -0.00042994	     -0.00327559	     -0.00089291	      0.01496689	     -0.00612282	      0.00246614	      0.02159994	     -0.01785822	     -0.00599526	      0.01296847	     -0.00548502	     -0.01250075	      0.02738260	     -0.03065661	     -0.02347080	      0.01449917	     -0.00735589	     -0.01556216	      0.03163456	     -0.03831013
      0.56666667	     -0.32216648	      0.13645452	     -0.13645452	      0.32216648	     -0.06523216	      0.52718336	      0.23696529	     -0.23696529	     -0.52718336	      0.06523216	     97.73887361	     76.27577800	     -1.70586515	    -21.20634986	     29.99721185	     29.90674262	      0.12133116	     -1.00145524	      0.15261449	     -0.50072762	     10.99236418	      1.16050940	    -41.61579795	    -60.34872806	     75.10319333	     12.99402801	     85.24377171	     81.12647719	     83.09196492	      3.51237827	     84.28099860	     50.52697454	     83.86487452	    -11.19212879	     87.90486886	     68.78189054	     94.05282354	    -14.06982885	     90.97295617	      5.51792023	      0.00089221	     -0.03103814	     -0.00485379	      0.01643902	     -0.01834889	     -0.00847608	      0.00534023	     -0.06632887	     -0.00245915	      0.00677978	     -0.18369056	     -0.00027641	     -0.00358880	      0.00098538	      0.00019127	      0.00018474	      0.00007390	      0.00036948	      0.00023646	      0.00070939	      0.00039903	      0.00003133	     -0.00020768	     -0.00024922	      0.00250015	      0.00877172	      0.00610207	     -0.00817847	      0.01974697	     -0.01872996	      0.00250015	      0.00877172	      0.00610207	      0.00055088	      0.01830620	     -0.00961923	      0.00395206	      0.00487784	      0.01597770	      0.00000000	      0.00778093	      0.00000000	     -0.00716145	     -0.03309524	     -0.00641574	      0.01446266	     -0.00046927	     -0.00372834	     -0.00088988	      0.01491616	     -0.00610207	      0.00245778	      0.02152674	     -0.01779770	     -0.00597494	      0.01292452	     -0.00546644	     -0.01245839	      0.02728980	     -0.03055271	     -0.02339126	      0.01445003	     -0.00733096	     -0.01550942	      0.03152735	     -0.03818030
      0.60000000	     -0.32337214	      0.13696518	     -0.13696518	      0.32337214	     -0.06547628	      0.52915626	      0.23785210	     -0.23785210	     -0.52915626	      0.06547628	     97.46354715	     76.56122792	     -1.70105980	    -19.81261254	     30.01350598	     28.64249616	      0.13170773	     -0.98802364	      0.16454774	     -0.49401182	     10.94261475	      0.85864006	    -41.62161016	    -59.86540967	     74.97750316	     12.96977646	     85.25028506	     82.93880287	     82.92514767	      3.52782708	     84.44977758	     51.20111495	     82.72601757	    -11.24456243	     88.50979789	     67.69008356	     93.92197545	    -14.06718846	     90.84593659	      5.53712441	      0.00089275	     -0.03104001	     -0.00485410	      0.01640564	     -0.01835332	     -0.00859203	      0.00543364	     -0.06626847	     -0.00235731	      0.00665668	     -0.18371301	     -0.00025722	     -0.00343709	      0.00093814	      0.00019300	      0.00019341	      0.00007736	      0.00038681	      0.00024756	      0.00074268	      0.00041776	      0.00003141	     -0.00020707	     -0.00024848	      0.00250951	      0.00880455	      0.00612490	     -0.00820907	      0.01982087	     -0.01880005	      0.00250951	      0.00880455	      0.00612490	      0.00055294	      0.01837471	     -0.00965523	      0.00396284	      0.00489610	      0.01600394	      0.00000000	      0.00783969	      0.00000000	     -0.00718825	     -0.03321909	     -0.00646452	      0.01366789	     -0.00042619	     -0.00323341	     -0.00089322	      0.01497199	     -0.00612490	      0.00246697	      0.02160730	     -0.01786430	     -0.00599730	      0.01297289	     -0.00548689	     -0.01250501	      0.02739193	     -0.03066705	     -0.02347880	      0.01450411	     -0.00735839	     -0.01556746	      0.03164533	     -0.03832318
      0.63333333	     -0.32285267	      0.13674515	     -0.13674515	      0.32285267	     -0.06537110	      0.52830623	      0.23747001	     -0.23747001	     -0.52830623	      0.06537110	     97.60787141	     76.43823984	     -1.70357873	    -20.48936856	     29.94924115	     29.30550680	      0.12385769	     -1.00020883	      0.15553615	     -0.50010441	     11.01741488	      0.95970383	    -41.67136904	    -60.06051556	     74.93944996	     12.96294255	     85.19243722	     81.69480480	     83.08869178	      3.56961798	     84.20206964	     50.60782892	     84.07817010	    -11.21867829	     87.13684853	     70.84538408	     94.23135467	    -14.06972368	     90.39098550	      5.56002768	      0.00089063	     -0.03103264	     -0.00485291	      0.01642361	     -0.01833586	     -0.00853151	      0.00538465	     -0.06630015	     -0.00241072	      0.00672118	     -0.18370130	     -0.00026744	     -0.00351665	      0.00096285	      0.00019220	      0.00018556	      0.00007422	      0.00037111	      0.00023751	      0.00071254	      0.00040080	      0.00003129	     -0.00020802	     -0.00024962	      0.00250548	      0.00879041	      0.00611506	     -0.00819588	      0.01978903	     -0.01876985	      0.00250548	      0.00879041	      0.00611506	      0.00055205	      0.01834519	     -0.00963972	      0.00395820	      0.00488823	      0.01599266	      0.00000000	      0.00781434	      0.00000000	     -0.00717671	     -0.03316573	     -0.00644348	      0.01405708	     -0.00044701	     -0.00346991	     -0.00089178	      0.01494794	     -0.00611506	      0.00246301	      0.02157259	     -0.01783560	     -0.00598767	      0.01295205	     -0.00547808	     -0.01248492	      0.02734793	     -0.03061779	     -0.02344108	      0.01448081	     -0.00734657	     -0.01554246	      0.03159450	     -0.03826162
